<?xml version="1.0" encoding="utf-8"?>
<svg version="1.1" xmlns:xlink="http://www.w3.org/1999/xlink" width="8px" height="8px" xmlns="http://www.w3.org/2000/svg">
  <g transform="matrix(1 0 0 1 -418 -780 )">
    <path d="M 7.699999999999999 6.299999999999999  L 5.4 4  L 7.699999999999999 1.7000000000000002  C 8.1 1.2999999999999998  8.1 0.7000000000000002  7.699999999999999 0.3000000000000007  C 7.299999999999999 -0.09999999999999876  6.699999999999999 -0.0999999999999992  6.299999999999999 0.3000000000000007  L 4 2.5999999999999996  L 1.7000000000000002 0.2999999999999998  C 1.2999999999999998 -0.10000000000000009  0.7000000000000002 -0.10000000000000009  0.3000000000000007 0.2999999999999998  C -0.09999999999999876 0.6999999999999993  -0.0999999999999992 1.2999999999999998  0.3000000000000007 1.6999999999999993  L 2.5999999999999996 4  L 0.2999999999999998 6.300000000000001  C -0.10000000000000009 6.700000000000001  -0.10000000000000009 7.300000000000001  0.2999999999999998 7.700000000000001  C 0.5 7.9  0.7000000000000002 8  1 8  C 1.2999999999999998 8  1.5 7.9  1.7000000000000002 7.699999999999999  L 4 5.4  L 6.300000000000001 7.699999999999999  C 6.5 7.899999999999999  6.800000000000001 8  7 8  C 7.199999999999999 8  7.5 7.9  7.699999999999999 7.699999999999999  C 8.1 7.299999999999999  8.1 6.699999999999999  7.699999999999999 6.299999999999999  Z " fill-rule="nonzero" fill="#ffffff" stroke="none" transform="matrix(1 0 0 1 418 780 )" />
  </g>
</svg>